<svg width="34" height="35" viewBox="0 0 34 35" fill="none" xmlns="http://www.w3.org/2000/svg">
<rect y="0.5" width="34" height="34" rx="17" fill="#1DD19D"/>
<g clip-path="url(#clip0_2132_1814)">
<path d="M19.5435 28H14.587C14.5 28 14.4565 27.954 14.4565 27.8618V15.704C14.4565 15.6118 14.5 15.5658 14.587 15.5658H19.5435C19.6305 15.5658 19.6739 15.6118 19.6739 15.704V27.8618C19.6739 27.954 19.6305 28 19.5435 28Z" fill="#052B58"/>
<path d="M16.8043 7.09208L12.5435 13.4013C12.4565 13.5395 12.5435 13.7697 12.7174 13.7697H21.2826C21.4565 13.7697 21.5435 13.5395 21.4565 13.4013L17.1956 7.09208C17.1087 6.95392 16.8913 6.95392 16.8043 7.09208Z" fill="#052B58"/>
</g>
<defs>
<clipPath id="clip0_2132_1814">
<rect width="9" height="21" fill="white" transform="translate(12.5 7)"/>
</clipPath>
</defs>
</svg>
