<svg width="13" height="20" viewBox="0 0 13 20" fill="none" xmlns="http://www.w3.org/2000/svg">
<path d="M3.5 13.5H9.5M5 17V17.5C5 18.0523 5.44772 18.5 6 18.5H7C7.55228 18.5 8 18.0523 8 17.5V17M12 7C12 8.93997 11.3978 9.9767 10.4272 11.3368C9.82734 12.1773 9.5 13.1794 9.5 14.212V15.5C9.5 16.0523 9.05228 16.5 8.5 16.5H4.5C3.94772 16.5 3.5 16.0523 3.5 15.5V14.212C3.5 13.1794 3.17266 12.1773 2.57284 11.3368C1.60216 9.9767 1 8.93997 1 7C1 4 3.5 1.5 6.5 1.5C9.5 1.5 12 4 12 7Z" stroke="#121923" stroke-width="1.2"/>
</svg>
